<svg width="40" height="40" viewBox="0 0 40 40" fill="none" xmlns="http://www.w3.org/2000/svg">
<path d="M20 0C8.98785 0 0 8.98787 0 20C0 31.0122 8.98785 40 20 40C31.0121 40 40 31.0122 40 20C40 8.98787 31.0121 0 20 0ZM5.58704 20C5.58704 15.8705 7.36842 12.0648 10.2024 9.4737C11.336 8.42106 13.2794 8.74494 14.0891 10.1215L19.1093 18.7854C19.5951 19.5952 19.5951 20.5668 19.1093 21.3765L14.0891 30.0405C13.2794 31.498 11.336 31.7409 10.1215 30.6073C7.36842 27.8542 5.58704 24.1296 5.58704 20ZM25.9109 29.8785L20.8907 21.2146C20.4049 20.4049 20.4049 19.4332 20.8907 18.6235L25.9109 9.95951C26.7206 8.58299 28.583 8.25911 29.7976 9.31174C32.6316 11.9028 34.413 15.7085 34.413 19.8381C34.413 23.9676 32.6316 27.7733 29.7976 30.3644C28.583 31.6599 26.7206 31.336 25.9109 29.8785Z" fill="#E3FCF9"/>
</svg>
