<svg width="653" height="155" viewBox="0 0 653 155" fill="none" xmlns="http://www.w3.org/2000/svg">
<path d="M2.2 45.9999C2.2 19.1999 24.8 0.199951 56.6 0.199951C88.4 0.199951 108.4 17.8 108.4 45.7999H76.2C76.2 35.4 68.4 29 56.2 29C43 29 34.6 34.9999 34.6 44.7999C34.6 53.7999 39.2 58.2 49.6 60.4L71.8 65C98.2 70.3999 110.8 82.9999 110.8 106.4C110.8 135 88.4 153.6 54.4 153.6C21.4 153.6 0 135.8 0 108H32.2C32.2 118.8 40.2 124.8 54.6 124.8C69.2 124.8 78.4 119 78.4 109.6C78.4 101.4 74.6 97.2 64.8 95.2L42.2 90.6C15.8 85.2 2.2 70.2 2.2 45.9999Z" fill="#A8C7C3"/>
<path d="M305.664 51H336.464V151H307.464L305.464 139.8C299.264 148 286.864 153.6 274.864 153.6C252.064 153.6 238.064 138.4 238.064 113.8V51H268.864V102.6C268.864 119 274.464 126.2 287.064 126.2C300.264 126.2 305.664 119.4 305.664 103V51Z" fill="#A8C7C3"/>
<path d="M378.377 151H347.577V51H376.577L378.577 61.3999C384.777 52.7999 396.177 47.7999 409.177 47.7999C432.977 47.7999 446.777 62.9999 446.777 89.2V151H415.977V96.6C415.977 84 408.977 75.7999 398.377 75.7999C386.177 75.7999 378.377 83.7999 378.377 96.2V151Z" fill="#A8C7C3"/>
<path d="M498.866 153.6C470.066 153.6 451.466 133.2 451.466 101.6C451.466 69.7999 470.466 47.7999 500.866 47.7999C513.266 47.7999 525.066 52.7999 530.866 60.1999V0.199951H561.666V151H532.666L531.066 138.2C525.666 147.4 513.266 153.6 498.866 153.6ZM506.266 125.4C520.666 125.4 530.666 115.4 530.666 100.4C530.666 85.3999 520.666 75.3999 506.266 75.3999C491.666 75.3999 482.466 85.5999 482.466 100.4C482.466 115.2 491.666 125.4 506.266 125.4Z" fill="#A8C7C3"/>
<path d="M565.595 119.4H594.795C595.195 126.4 600.395 130.6 609.795 130.6C619.395 130.6 623.795 127.2 623.795 122C623.795 119 622.195 115.8 614.795 114.2L596.395 110.2C577.995 106.2 568.995 98.2 568.995 80.5999C568.995 59.7999 586.795 47.7999 610.795 47.7999C633.995 47.7999 650.195 61.3999 650.195 81.6H620.995C620.995 74.7999 616.795 70.2 609.395 70.2C602.395 70.2 597.995 73.8 597.995 79.2C597.995 83.7999 601.795 86.3999 608.795 87.9999L627.395 91.9999C643.795 95.5999 652.795 103.2 652.795 119.2C652.795 140.6 634.595 153.6 608.595 153.6C582.195 153.6 565.595 139.6 565.595 119.4Z" fill="#A8C7C3"/>
<path d="M173 48C142.166 48 117 72.0425 117 101.5C117 130.957 142.166 155 173 155C203.834 155 229 130.957 229 101.5C229 72.0425 203.834 48 173 48ZM132.644 101.5C132.644 90.4534 137.632 80.2733 145.567 73.3421C148.741 70.5263 154.182 71.3927 156.449 75.0749L170.506 98.251C171.866 100.417 171.866 103.016 170.506 105.182L156.449 128.358C154.182 132.257 148.741 132.907 145.34 129.874C137.632 122.51 132.644 112.547 132.644 101.5ZM189.551 127.925L175.494 104.749C174.134 102.583 174.134 99.9838 175.494 97.8178L189.551 74.6416C191.818 70.9594 197.032 70.0931 200.433 72.9089C208.368 79.84 213.356 90.0202 213.356 101.067C213.356 112.113 208.368 122.293 200.433 129.225C197.032 132.69 191.818 131.824 189.551 127.925Z" fill="#A8C7C3"/>
</svg>
